<svg xmlns="http://www.w3.org/2000/svg" viewBox="0 0 1600 900" role="img" aria-label="Bellevue skyline fading into neighborhoods">
  <defs><linearGradient id="g" x1="0" x2="1" y1="0" y2="1"><stop stop-color="#06131f"/><stop offset=".55" stop-color="#0f5c88"/><stop offset="1" stop-color="#f4b942"/></linearGradient></defs>
  <rect width="1600" height="900" fill="url(#g)"/>
  <path d="M0 650 C250 560 460 680 700 590 C920 510 1050 620 1600 520 L1600 900 L0 900Z" fill="#13212e" opacity=".75"/>
  <g fill="#dbe8ef" opacity=".9"><rect x="520" y="280" width="70" height="300"/><rect x="610" y="190" width="100" height="390"/><rect x="730" y="250" width="80" height="330"/><rect x="840" y="150" width="110" height="430"/><rect x="980" y="320" width="65" height="260"/></g>
  <g fill="#f7f3ea" opacity=".75"><rect x="120" y="590" width="120" height="55"/><rect x="300" y="610" width="150" height="60"/><rect x="1120" y="570" width="165" height="70"/><rect x="1320" y="610" width="140" height="55"/></g>
</svg>
